<?xml version="1.0" encoding="UTF-8" standalone="no"?>
<svg
   viewBox="28.074996948242188 92.41487121582031 518.8500061035156 428"
   version="1.1"
   id="svg8"
   sodipodi:docname="logo-svg.svg"
   inkscape:version="1.4.2 (ebf0e940d0, 2025-05-08)"
   xmlns:inkscape="http://www.inkscape.org/namespaces/inkscape"
   xmlns:sodipodi="http://sodipodi.sourceforge.net/DTD/sodipodi-0.dtd"
   xmlns="http://www.w3.org/2000/svg"
   xmlns:svg="http://www.w3.org/2000/svg">
  <defs
     id="defs8" />
  <sodipodi:namedview
     id="namedview8"
     pagecolor="#ffffff"
     bordercolor="#000000"
     borderopacity="0.25"
     inkscape:showpageshadow="2"
     inkscape:pageopacity="0.0"
     inkscape:pagecheckerboard="0"
     inkscape:deskcolor="#d1d1d1"
     inkscape:zoom="2.8060748"
     inkscape:cx="259.43714"
     inkscape:cy="214"
     inkscape:window-width="2560"
     inkscape:window-height="1412"
     inkscape:window-x="0"
     inkscape:window-y="0"
     inkscape:window-maximized="1"
     inkscape:current-layer="svg8" />
  <svg
     version="1.1"
     id="Layer_1"
     x="172.5009994506836"
     y="162.4148712158203"
     viewBox="71.1015625 83.28515625 457.8984375 403.81640625"
     xml:space="preserve"
     height="202.8333282470703"
     width="230"
     preserveAspectRatio="xMinYMin"
     enable-background="new 0 0 595.3 595.3"
     style="overflow: visible;"><path
       class="st0"
       d="M208.2,378.3c0-2.4,0-4.7,0.1-7c-1.7-0.6-3.6-0.8-5.6-0.6c-1.9,0.2-5.1,0.3-6.2,0c-0.4-0.1-2-0.7-3.9-2.4    c-1.9-1.7-3.1-3.5-4-5.7c-0.2-0.7-0.4-1.4-0.6-2.1c-0.1-0.7-0.2-1.3-0.4-2c0-0.6,0-1.2-0.1-1.8v-0.3c0-0.5,0.1-1.1,0-1.9    c0.1-0.6,0.2-1.2,0.2-1.8v-0.1c0-0.1,0-0.1,0-0.2c0.1-0.6,0.3-1.2,0.4-1.9c0.3-0.7,0.5-1.3,0.7-2c0.1-0.1,0.1-0.3,0.2-0.4    c0.3-0.5,0.5-1,0.6-1.4l0.2-0.5c-2.9-2.5-5.7-5.2-8.5-7.9c-3.2-3.2-6.4-6.6-9.3-10c-1.3,1.7-2.6,3.4-3.6,5.4    c-0.7,1.1-1.2,2.2-1.5,3c0,0.1-0.1,0.2-0.1,0.3l-0.2,0.4c-0.4,0.8-1.1,2.1-1.6,3.9c-0.1,0.3-0.2,0.5-0.3,0.8l-0.5,1.2l-0.4,1.7    c0,0.3-0.1,0.7-0.2,1l0,0.2c-0.1,0.5-0.4,1.3-0.6,2.4l-0.2,2.1v-0.1c-0.1,0.9-0.3,1.7-0.3,2.6l0,0.8l0,0.6v0.4    c-0.1,1-0.1,2.7,0.1,4.6c0,0.7,0.1,1.4,0.2,2.2l0.3,1.4c0,0.3,0.1,0.5,0.1,0.8l0.2,2.1l0.7,2.1c0,0.2,0.1,0.3,0.1,0.5l0.4,1.6    c2.2,6.1,5.7,11.5,10.7,16.1c4.2,3.8,9,6.6,13.9,8c6.3,1.8,13.9,1,16.1,0.8c1.1-0.1,2.1-0.4,3.1-0.8    C208.4,389.1,208.2,383.7,208.2,378.3z M211.9,414.8l-1.3,0.3c-2.2,0.3-3.8,0.5-3.9,0.5l-0.9,0.1c-1.8,0.3-4.8,0.9-6.5,1l-4.8-0.2    c-0.7,0-1.8-0.2-2.9-0.4c-1-0.2-2.1-0.3-3.2-0.5c-4.4-1-10-2.6-16-5.9c-4.7-2.6-11.6-7.3-17.7-15.2c-4.2-5.4-9.7-14.3-12-26.2    l-0.9-6.3l-0.3-6.6c0-0.7,0.1-1.4,0.1-2.1c0-0.7,0.1-1.5,0.1-2.2v-0.5c0-1.4,0.3-3.1,0.6-5.2c0.2-1,0.4-2.1,0.5-3.2    c0.1-0.7,0.3-1.4,0.5-2.1c0.2-0.7,0.4-1.5,0.5-2.1l0.6-2.3c0.1-0.2,0.1-0.4,0.2-0.6c0.2-0.4,0.3-0.8,0.4-1l1.7-4.6l2.2-4.5    l0.2-0.5c0.3-0.6,0.8-1.5,1.4-2.5l0.5-0.7c0.4-0.7,0.9-1.4,1.3-2.1c0.3-0.5,0.7-1.2,0.9-1.4l0.7-0.9c1.4-2.1,3.1-4.1,5-6.1    c-4.8-7.2-9-14.7-12.7-22.4c-4.9,4.6-9,9.2-12.3,14c-1.2,1.5-2.1,3-2.8,4.2c-0.2,0.4-0.5,0.8-0.7,1.2l-0.7,1.2    c-0.9,1.5-2,3.2-3,5.4l-2.4,4.8l-2.7,7.1c-0.3,0.8-0.6,1.7-0.9,2.5l-0.9,3.2c-0.1,0.5-0.3,1.1-0.4,1.6c-0.4,1.4-0.7,2.7-1,4.1    l-0.1,0.7c-0.1,1-0.3,1.9-0.5,2.9c-0.4,2.6-0.9,5.6-1,8.9c0,0.5,0,1-0.1,1.5c-0.1,1.3-0.2,2.6-0.2,3.9v0.3l0.3,7.8l1.2,8.5    l0.1,0.6c2.6,13.4,8.4,26.2,16.9,37c6.9,8.9,15.7,16.4,25.4,21.7c9,5,17.5,7.2,23,8.5l1.4,0.2c1,0.1,2,0.3,2.9,0.4    c1.7,0.3,3.5,0.5,5.5,0.6l6.3,0.3l0.6,0c3.3-0.2,8.2-1.1,9.9-1.4c0.8-0.1,2.7-0.4,5.1-0.7l3.3-0.9    C215.8,430.9,213.6,422.9,211.9,414.8z M227.1,458.7c-1,0.3-1.9,0.6-2.7,0.8l-8.6,1.9c-3.2,0.4-5.3,0.7-6.2,0.8    c-2.2,0-9.9,0.1-14.3,0.1l-8.7-0.7c-2.2-0.2-4.8-0.8-7.8-1.4c-1-0.2-2.1-0.4-3.2-0.6c-10.7-2.8-20.1-6.8-28.7-12    c-11.7-7-22.1-16.7-30.3-28c-6.9-9.6-15.8-25.3-19.1-46.3l-1.2-10.6l-0.1-10.9c0.1-1.6,0.2-3.2,0.4-5l0.2-2.5    c0.2-3.5,1-7.4,1.8-11.5c0.2-1,0.4-2,0.6-3c0.4-1.6,0.9-3.2,1.4-5l1.8-6c0.2-0.7,0.5-1.3,0.8-2l0.5-1.3c1-2.4,1.9-4.8,3-7.2l4-7.6    c0.9-1.8,2.1-3.6,3.4-5.6l0.4-0.6c0.5-0.8,1.1-1.6,1.6-2.4c0.9-1.5,1.9-2.8,2.7-3.8l0.5-0.6c5.1-6.8,11.4-13.4,19-19.6    c-2.9-8.5-5.1-17.3-6.6-26.1c-1.3,0.9-2.6,1.8-3.9,2.7c-11.3,8.6-20.8,17.9-28.2,27.8c-1.7,2.1-3.1,4.1-4.3,5.9    c-0.4,0.7-0.9,1.4-1.4,2l-0.6,0.9c-1.6,2.4-3.3,5.1-4.8,7.9l-4.1,7.7l-0.4,0.7c-1.2,2.7-2.3,5.5-3.4,8.2l-0.5,1.3    c-0.5,1.1-0.9,2.3-1.3,3.4l-2.1,6.7c-0.6,2.1-1.3,4.3-1.9,6.7l-0.7,3.5c-0.9,4.7-1.9,9.5-2.3,14.7l-0.2,1.9    c-0.2,2.1-0.4,4.3-0.5,6.7v0.3l0.1,12.3l1.3,12.7l0.1,0.5c3.2,20.6,11.3,40.4,23.6,57.3c10.1,13.9,23.1,26,37.6,34.7    c10.7,6.5,22.4,11.3,35.6,14.8l0.8,0.2c1.2,0.2,2.4,0.5,3.5,0.7c3.5,0.7,6.9,1.4,10.2,1.7l9.3,0.8l1.4,0.1    c5.2,0,15.7-0.1,15.7-0.1l1.1,0c0,0,2.8-0.3,8.1-1l10.3-2.2c3.1-0.7,6.2-1.8,9.5-2.9c0.2,0,0.3-0.1,0.5-0.2    C235.3,473.5,230.9,466.3,227.1,458.7z"
       style="fill: #F58420;"
       id="path1" /><path
       class="st1"
       d="M394.6,395.2c2.2,0.3,9.8,1,16.1-0.8c4.9-1.4,9.7-4.2,14-8c4.9-4.6,8.5-10,10.6-16.1l0.4-1.6    c0-0.2,0.1-0.3,0.1-0.5l0.7-2.1l0.3-2.1c0-0.2,0.1-0.5,0.1-0.8l0.3-1.4c0.1-0.7,0.1-1.4,0.2-2.2c0.3-2,0.2-3.6,0.1-4.6l0-0.4    l0.1-0.6l0-0.8c0-0.8-0.2-1.7-0.3-2.7l-0.2-1.8c-0.1-1-0.4-1.8-0.5-2.3l0-0.2c-0.1-0.3-0.1-0.6-0.2-0.9l-0.4-1.8l-0.5-1.1    c-0.1-0.3-0.2-0.5-0.3-0.8c-0.1-0.6-0.3-1.1-0.5-1.6c-6.9,6.7-14.2,12.8-21.8,18.2c0,0.1,0,0.3,0,0.5c-0.1,0.7-0.3,1.3-0.4,2    c-0.2,0.7-0.4,1.4-0.6,2.1c-0.8,2.1-2.1,3.9-3.9,5.6c-1.9,1.8-3.5,2.3-3.9,2.4c-0.5,0.1-1.6,0.2-2.8,0.2c-1.1,0-2.4-0.1-3.4-0.2    c-6.8-0.8-13,4-13.8,10.7C383,388.2,387.8,394.4,394.6,395.2z"
       style="fill: #ED1D63;"
       id="path2" /><path
       class="st1"
       d="M335.9,402.9c3.9,7.3,9.1,13.9,15.3,19.3c1.2,1.1,2.5,2.1,3.7,3.1c5.6,4.4,11.1,7.3,15,9.1l1.4,0.6    c0.9,0.3,1.7,0.6,2.5,1c1.5,0.6,3.1,1.2,4.9,1.7l4.2,1.2l2.3,0.5c2.4,0.4,4.2,0.6,5.1,0.7c1.7,0.3,6.6,1.2,9.9,1.4l0.6,0l6.1-0.3    h0.2c1.9-0.1,3.7-0.4,5.5-0.6c0.9-0.1,1.9-0.3,2.9-0.4l1.4-0.2c5.5-1.3,13.9-3.5,23-8.5c9.7-5.3,18.4-12.8,25.4-21.7    c8.4-10.8,14.3-23.6,16.9-37l1.1-7.8l0.5-9.1v-0.3c0-1.3-0.1-2.6-0.2-3.9c0-0.5-0.1-1-0.1-1.5c0-3.3-0.5-6.2-1-8.9    c-0.1-0.9-0.3-1.9-0.4-2.9l-0.1-0.7c-0.3-1.4-0.6-2.7-1-4.1c-0.1-0.5-0.3-1.1-0.5-1.8l-0.8-3.1c-0.2-0.8-0.6-1.7-0.9-2.5l-2.3-6    l-2.8-5.9c-1-2.1-2.1-3.9-3-5.4l-0.7-1.2c-0.2-0.4-0.5-0.8-0.7-1.2c-0.7-1.2-1.6-2.7-2.8-4.2c-0.4-0.6-0.9-1.3-1.4-1.9    c-4.4,7.7-9.4,15.1-15,22.1c0.5,0.7,0.9,1.4,1.1,1.9l2.5,5l1.7,4.4c0.1,0.4,0.3,0.8,0.4,1.2c0.1,0.2,0.2,0.4,0.2,0.6l0.6,2.2    c0.2,0.7,0.4,1.5,0.6,2.2c0.2,0.7,0.4,1.4,0.5,2.1c0.1,1.1,0.3,2.1,0.5,3.2c0.3,2,0.6,3.8,0.6,5.2l0,0.5c0,0.7,0.1,1.5,0.1,2.2    c0,0.7,0.1,1.4,0.1,2.1l-0.3,6.6l-0.9,6.3c-2.4,11.9-7.8,20.8-12,26.2c-6.2,7.9-13.1,12.6-17.8,15.2c-6,3.3-11.6,4.9-16,5.9    c-1.1,0.1-2.2,0.3-3.2,0.5c-1.2,0.2-2.3,0.3-3,0.4l-4.7,0.2c-1.7-0.2-4.8-0.7-6.5-1l-0.9-0.1c-0.1,0-1.7-0.2-3.9-0.6l-4.5-1.2    c-0.5-0.1-1.5-0.5-2.4-0.9c-0.9-0.3-1.9-0.7-2.9-1.1c-3.6-1.8-8.1-4.3-12.5-8.2c-1.6-1.4-3.5-3.3-5.4-5.6c-2-2.5-4-5.5-5.7-9.1    c-0.6-1.3-1.1-2.6-1.6-3.9c-5.4,1.4-10.8,2.6-16.3,3.5c-2.7,0.4-5.5,0.8-8.2,1.2c1,3.3,2.2,6.5,3.6,9.6    C334.7,400.5,335.3,401.8,335.9,402.9z"
       style="fill: #ED1D63;"
       id="path3" /><path
       class="st1"
       d="M528.6,344.3l-0.2-1.9c-0.3-5.2-1.3-10-2.3-14.7l-0.7-3.5c-0.6-2.4-1.2-4.6-1.9-6.7l-1.9-6.4l-0.1-0.3    c-0.4-1.1-0.8-2.3-1.3-3.4l-0.5-1.2c-1.1-2.8-2.3-5.6-3.5-8.3l-4.3-8.3c-1.5-3-3.3-5.7-4.9-8.1l-0.6-0.9c-0.5-0.7-0.9-1.3-1.4-2    c-1.2-1.8-2.6-3.9-4.3-5.9c-4.9-6.5-10.6-12.7-17.2-18.6c-2.2,8.9-5,17.7-8.6,26.3c2.3,2.5,4.3,4.9,6.2,7.5l0.5,0.6    c0.8,1,1.7,2.4,2.7,3.8c0.5,0.8,1,1.6,1.6,2.4l0.4,0.6c1.3,2,2.6,3.9,3.5,5.8l3.9,7.4c1.1,2.4,2.1,4.9,3,7.1l0.5,1.4    c0.3,0.6,0.5,1.3,0.8,2l1.8,6c0.5,1.8,1,3.4,1.4,5c0.2,1,0.4,2,0.6,3c0.8,4.1,1.6,7.9,1.8,11.5l0.2,2.5c0.2,1.8,0.3,3.5,0.4,5    l-0.1,10.9l-1.2,10.6c-3.3,21-12.2,36.7-19.1,46.3c-8.1,11.3-18.6,21-30.3,28c-8.6,5.2-18,9.1-28.7,11.9c-1.1,0.2-2.2,0.4-3.2,0.6    c-3,0.6-5.7,1.1-7.8,1.4l-8.7,0.7c-4.4,0-12.1,0-14.3-0.1c-0.9-0.1-3-0.3-6.2-0.8l-8.3-1.8c-2.1-0.5-4.5-1.3-7.4-2.3    c-1-0.3-2.1-0.7-3.1-1c-7.4-3-13.9-6.6-19.9-10.6c-1.9-1.3-3.7-2.6-5.4-4c-5-4-9.5-8.5-13.6-13.4c-3.8-4.6-7.2-9.6-10-14.9    c-1.3-2.4-2.4-4.7-3.5-7.2c-2.1-4.9-3.8-9.9-5-15.1c-5.4,0-10.9-0.3-16.3-0.8c-3.1-0.3-6.2-0.7-9.3-1.1c1,5.7,2.4,11.4,4.2,16.9    c0,0,0,0,0,0c2.1,6.5,4.9,12.8,8.1,18.9c1.6,2.9,3.3,5.8,5.1,8.6c3.9,6,8.5,11.7,13.4,16.9c3.6,3.7,7.4,7.2,11.3,10.4    c2.5,2,5,3.8,7.6,5.6c7.3,4.9,15.2,9.1,24.1,12.8l0.8,0.3c1.2,0.4,2.3,0.7,3.4,1.1c3.3,1.1,6.4,2.2,9.7,3l9.1,2l1,0.2    c5.3,0.7,8.1,1,8.1,1l1.1,0c0,0,8.6,0.1,14,0.1h1.7l10.6-0.9c3.3-0.3,6.7-1,10.2-1.7c1.1-0.2,2.3-0.4,3.5-0.7l0.8-0.2    c13.2-3.5,24.9-8.3,35.6-14.8c14.5-8.7,27.5-20.8,37.6-34.7c12.2-16.9,20.4-36.7,23.6-57.3l1.4-12.1l0.2-13.3V351    C529,348.7,528.8,346.5,528.6,344.3z"
       style="fill: #ED1D63;"
       id="path4" /><path
       class="st1"
       d="M299.1,465.2c-1.1-1.3-2.2-2.5-3.4-3.7c-2.6-2.8-5.4-5.8-9-10.8c-2.4-3.3-5.1-7.6-8.3-13.2    c-1.7-3-3.3-6.1-4.8-9.3c-3.8-8.1-6.8-16.5-9-25.1c-1.5-6-2.6-12.2-3.2-18.3c-4.8-1.3-9.6-2.9-14.4-4.6c-3.7-1.3-7.4-2.8-11-4.4    c0,0.6,0,1.1,0,1.7v0.3c0.3,6.8,1,13.7,2.3,20.4c1.6,9.3,4.1,18.4,7.3,27.3c2.5,6.9,5.5,13.7,9,20.2c0.7,1.4,1.5,2.7,2.2,4.1    c4.2,7.4,7.7,12.8,10.8,17c3.9,5.4,7.2,8.8,10,11.8c1,1.1,1.9,2.1,2.8,3.1c0.6,0.7,1.3,1.4,2.1,1.9c4.6,3.3,10.9,3.1,15.4-0.7    c4.7-4.1,5.5-11.1,2.1-16.1C299.8,466,299.4,465.6,299.1,465.2z"
       style="fill: #ED1D63;"
       id="path5" /><path
       class="st2"
       d="M306.3,364.9c-12.2,0-25-1.7-38.2-5c-13.4-3.5-26.7-9.1-39.7-16.9c-11.7-7.1-22.7-16.3-32.9-27.3l-0.3-0.3    c-9.7-11.3-17.5-23-23.2-35c-6.1-13.4-10.1-26.7-12-39.6c-1.9-14.1-2-27.5-0.3-39.7c0.2-2.7,0.7-5.1,1.2-7.2    c0.2-0.8,0.3-1.6,0.5-2.4l0.2-1c0.6-2.8,1.2-6,2.3-9.2l2.8-8.9c1.1-2.8,2.2-5.6,3.4-8.3l0.6-1.3c0.5-1.1,0.9-2.2,1.5-3.3l0.2-0.3    l3.1-5.9c1-2,2.1-4,3.4-6l2-3c2.6-4,5.3-8.1,8.8-12l1.2-1.4c1.4-1.6,2.8-3.4,4.4-5.1l0.4-0.4l9.3-9.1l9.5-7.6    c16.8-12.3,36.6-20.5,57.2-23.8c17-2.7,34.7-2,51.1,2c12.2,3,23.8,7.8,35.6,14.7l0.7,0.5c1,0.7,2,1.3,2.9,2c3,2,5.8,3.9,8.4,6    l3,2.5l5.2,4.4c3.7,3.6,11.1,11.2,11.1,11.2l0.8,0.8c0,0,1.8,2.2,5,6.5l0.6,0.8l5,7.8c1.8,3,3.3,5.9,4.8,9c0.5,1,1,2.1,1.6,3.2    l0.4,0.8c5.1,12.1,8.1,23.6,9.4,35.5c1.7,15.5,0.3,31.6-4.2,46.5c-5.3,17.5-14.6,33.6-26.9,46.4l-0.4,0.4l-7.8,7.4l-8.1,6.3    c-1.4,1-2.8,1.9-4.3,2.8c-0.5,0.3-1,0.6-1.5,0.9c-3.4,2.3-6.8,4-9.9,5.5c-1,0.5-1.9,0.9-2.9,1.4l-0.5,0.3    c-1.7,0.8-3.4,1.4-4.9,1.9c-0.6,0.2-1.2,0.5-1.9,0.7l-3.6,1.4c-0.9,0.3-1.9,0.6-2.9,0.8l-8.6,2.2l-6.4,1.1c-2.6,0.5-4.9,0.7-7,0.8    l-1.3,0.1c-0.6,0-1.2,0.1-1.8,0.1c-1.6,0.1-3.5,0.3-5.7,0.2c-9.2,0.1-18.8-1.3-29.3-4.2c-9.1-2.6-18.2-6.8-27.4-12.4    c-7.9-5.1-15.1-11.4-22.3-19.5l-0.4-0.5c-6.6-8.3-11.6-16.3-15.1-24.4c-4-9.8-6.4-18.6-7.4-27.3c-1-10.1-0.8-18.8,0.6-26.7    c0.2-2,0.6-3.6,1-5c0.1-0.5,0.2-0.9,0.3-1.4l0.3-1.3c0.4-1.7,0.9-3.7,1.7-5.9l2.7-7.3l2.1-4.7c0.4-0.8,0.7-1.6,1.2-2.4l1.6-2.7    c0.4-0.6,0.7-1.1,0.9-1.6c0.7-1.2,1.4-2.5,2.2-3.6l0.4-0.6c0.6-0.8,1.1-1.6,1.7-2.3c1.5-2.2,3.3-4.6,5.6-7c0.3-0.4,0.7-0.7,1-1.1    c0.9-1,1.7-2,2.6-2.9l0.4-0.4l6.5-5.9l6.3-4.7c11.3-7.6,24.5-12.6,38.1-14.3c11.2-1.4,22.7-0.5,33.3,2.6    c9.9,2.9,17.4,7.2,22.2,10.2l1.2,0.8c0.8,0.7,1.6,1.2,2.4,1.8c1.4,1,2.9,2.1,4.3,3.4l5.1,4.8c2.2,2.5,5,6.5,6,8    c0.5,0.7,1.7,2.2,3.1,4.1l0.7,1.1l2.7,4.7c0.9,1.7,1.6,3.3,2.3,4.7c0.3,0.8,0.7,1.6,1.1,2.5l0.6,1.4c1.7,5,4,12.6,4.6,21.8    c0.6,9.5-0.8,19.3-4.1,28.3c-3.8,10.3-9.9,19.5-17.6,26.7l-0.5,0.4l-5.1,4.2l-1.5,1c-0.7,0.5-1.6,1.1-2.4,1.6l-0.8,0.5    c-0.8,0.5-1.7,0.9-2.5,1.4c-0.2,0.1-0.4,0.2-0.7,0.3c-2.1,1.3-4.2,2.1-5.7,2.7c-0.5,0.2-1.1,0.4-1.6,0.6l-1,0.4    c-1,0.4-1.9,0.6-2.9,0.9c-0.3,0.1-0.5,0.1-0.8,0.2l-2.4,0.7c-0.7,0.2-1.5,0.3-2.3,0.5l-5.3,0.9c-0.9,0.1-1.7,0.1-2.6,0.2    c-1.9,0.3-3.5,0.2-4.6,0.2l-1.1,0l-0.3,0c-0.9,0-2.3,0.1-3.9-0.1c-6.1-0.4-11.7-2.1-15.9-3.5l-0.3-0.1c-6-2.2-10.9-5.4-14.4-8    l-0.3-0.3c-4.6-3.6-8.1-7.7-10.9-11.3l-0.7-1.1c-2.2-3.5-5-8.2-6.7-13.7l-0.1-0.5c-1.1-3.8-2.3-9-2.3-14.4l0-0.4    c0.1-4.2,0.4-8.6,1.7-13.1c0.3-1.6,0.8-2.7,1.1-3.4l0.2-0.5c0.3-0.8,0.7-2.3,1.6-3.9c0.1-0.3,0.3-0.5,0.4-0.8l0.5-1.2l1-1.5    c0.2-0.3,0.4-0.6,0.6-0.9l0.1-0.2c0.2-0.5,0.7-1.2,1.3-2.1l1.1-1.4c0.6-0.9,1.1-1.6,1.7-2.2l1.3-1.3c0.7-0.8,1.8-2,3.4-3.2    c0.6-0.6,1.1-1,1.7-1.4l1.2-0.8c0.2-0.1,0.4-0.3,0.6-0.4l1.7-1.3l2-1c0.2-0.1,0.3-0.2,0.5-0.3l1.4-0.8c5.8-2.8,12.2-4.1,18.9-3.8    c5.8,0.2,11.1,1.7,15.6,4.2c5.8,3.2,10.6,9.1,11.9,10.8c4.2,5.4,3.2,13.2-2.2,17.4c-5.4,4.2-13.2,3.2-17.4-2.2l0,0    c-1.4-1.7-3.5-3.9-4.4-4.4c-0.4-0.2-1.9-1-4.5-1.1c-2.4-0.1-4.6,0.3-6.7,1.2c-0.6,0.4-1.3,0.7-1.9,1.1l0,0    c-0.5,0.4-1.1,0.8-1.7,1.2c-0.5,0.5-0.9,0.8-1.4,1.2l-0.2,0.2c-0.3,0.4-0.8,0.9-1.3,1.4c-0.4,0.6-0.8,1-1.1,1.5    c0,0.1-0.1,0.1-0.1,0.2c-0.3,0.5-0.6,1.1-1,1.6c-0.3,0.7-0.6,1.3-0.9,1.9c-0.1,0.2-0.1,0.3-0.2,0.5c-0.2,0.6-0.4,1-0.5,1.4    l-0.3,0.9c-0.5,1.7-0.7,4-0.8,7c0,1.9,0.4,4.1,1.3,7.4c0.7,2,1.8,4.2,3.6,7.2c1.8,2.2,3.8,4.6,6.1,6.4c3.2,2.3,5.8,3.7,8.1,4.6    c2.8,1,6.5,2,9.8,2.2l1.1,0.1c0.7,0,1.4,0,2.1,0l0.7,0c0.2,0,0.3,0,0.5,0l0.5-0.1c1.1-0.1,2.1-0.2,3.2-0.3l2.6-0.5    c0.3-0.1,0.7-0.1,1-0.2l1-0.3c0.5-0.2,1.2-0.4,1.9-0.6c0.2-0.1,0.4-0.1,0.6-0.2c0.8-0.4,1.6-0.7,2.4-1c0.6-0.2,1.5-0.6,1.7-0.7    l0.6-0.4c0.6-0.3,1.2-0.7,1.8-1c0.2-0.1,0.4-0.2,0.6-0.3c0.9-0.6,1.8-1.3,2.7-1.9l1.7-1.3l2.4-2c4.8-4.5,8.6-10.3,11-16.8    c2.7-7.3,2.9-14,2.7-18.3c-0.3-5.8-1.8-10.8-3.1-14.6c-0.5-1-0.9-1.9-1.3-2.8c-0.4-0.9-0.8-1.9-1.1-2.3l-2.3-4.1    c-1.3-1.8-2.3-3.1-2.4-3.1l-0.5-0.7c-1-1.5-2.8-4-3.9-5.3l-3.6-3.3c-0.4-0.4-1.3-1-2.2-1.7c-0.8-0.6-1.7-1.2-2.6-1.9    c-3.8-2.4-9-5.2-15.5-7.1c-5.2-1.5-13.3-3.1-23.3-1.8c-6.8,0.8-16.9,3.3-27,10l-5.1,3.8l-4.8,4.4c-0.5,0.5-0.9,1-1.4,1.6    c-0.5,0.6-1,1.1-1.5,1.7l-0.3,0.3c-1,1-2,2.4-3.2,4.1c-0.6,0.9-1.2,1.7-1.9,2.6c-0.4,0.6-0.7,1.2-1.1,1.9c-0.4,0.7-0.8,1.3-1.2,2    l-1.1,1.9c-0.1,0.2-0.2,0.4-0.3,0.6c-0.2,0.4-0.4,0.8-0.5,1.2l-2,4.3l-1.8,5.3c-0.2,0.6-0.5,1.6-0.7,2.8l-0.2,0.9    c-0.2,0.8-0.4,1.6-0.6,2.4c-0.1,0.6-0.4,1.4-0.4,1.7l-0.2,1.2c-1.1,5.8-1.2,12.4-0.4,20.2c0.7,6.2,2.5,12.9,5.6,20.3    c2.5,5.8,6.3,11.9,11.4,18.3c5.6,6.2,11.1,11.1,16.9,14.8c7,4.3,14,7.6,20.7,9.5c8.3,2.3,15.9,3.4,22.8,3.3l0.5,0l0.5,0    c0.6,0,1.5,0,2.5-0.1c0.9-0.1,1.7-0.1,2.6-0.2l0.9-0.1c1.5-0.1,3-0.2,4-0.4l3.2-0.5l3.2-0.5l7-1.8c0.4-0.1,0.8-0.2,1.2-0.3    l2.9-1.1c0.6-0.2,1.3-0.5,2.1-0.8c1-0.4,2.1-0.8,3.1-1.2c1-0.5,2-1,3-1.5c2.6-1.3,5-2.4,6.9-3.7l0.3-0.2c0.6-0.4,1.3-0.8,1.9-1.2    c1-0.6,1.9-1.2,2.9-1.9l6.9-5.3l6.2-5.9c9.6-10,16.8-22.5,20.9-36.2c3.6-11.8,4.7-24.5,3.3-36.7c-1-9.3-3.5-18.5-7.5-28.2    c-0.5-1-1-2-1.5-3c-1.3-2.7-2.5-5-3.6-6.8l-4.6-7.2c-1.9-2.5-3.3-4.2-3.8-4.9c-1.5-1.6-6.9-7-10.1-10.2l-6.7-5.7    c-1.7-1.4-3.9-2.9-6.5-4.6c-0.9-0.6-1.8-1.2-2.7-1.8c-9.6-5.6-19-9.4-28.7-11.8c-13.3-3.3-27.5-3.8-41.3-1.6    c-11.6,1.9-29.1,6.7-46.3,19.2l-8.3,6.7l-7.8,7.6c-1.1,1.2-2.1,2.5-3.3,3.8l-1.6,1.9c-2.3,2.7-4.5,5.9-6.8,9.4    c-0.6,0.8-1.1,1.7-1.7,2.5c-0.8,1.4-1.7,2.9-2.5,4.5l-2.9,5.5c-0.3,0.6-0.6,1.3-0.8,1.9l-0.6,1.4c-1,2.3-2,4.7-2.9,7.2l-2.5,7.9    c-0.7,2.1-1.1,4.3-1.6,6.6l-0.1,0.7c-0.2,0.9-0.4,1.9-0.6,2.8c-0.4,1.7-0.7,3.3-0.8,4.6l-0.1,0.8c-1.4,10-1.4,21.1,0.3,33    c1.5,10.5,4.9,21.5,9.9,32.7c4.6,9.8,11.1,19.6,19.3,29.1c8.6,9.3,17.8,16.9,27.4,22.8c10.9,6.5,22.1,11.2,33.1,14.1    c12.5,3.1,24.5,4.5,35.7,4.2l0.4,0l0.4,0c1.6,0.1,3.5-0.1,5.5-0.3c1-0.1,2-0.2,3-0.3l0.6-0.1c2.8-0.3,5.4-0.5,7.7-1l0.3-0.1    c3-0.5,6-1.1,9-1.7c2.9-0.8,5.8-1.6,8.7-2.5l1.3-0.4c0.9-0.3,1.7-0.5,2.6-0.8l6.2-2.4c2.2-0.9,4.2-1.7,6.1-2.6l2.3-1.2    c4.7-2.4,9.1-4.6,12.8-7.3l1.9-1.3c2-1.3,3.8-2.5,5.5-3.8c2.3-1.8,4.6-3.7,6.9-5.6l3.1-2.6l3-2.9c2-2,4.1-4.1,6.1-6.1    c14.2-15.5,24.7-34.7,30.4-55.4c4.9-17.7,6.2-36.5,3.8-54.6c-1.8-14-5.7-27.6-12-41.5l-0.5-1c-2.7-5.2-5-9.7-7.2-13.3    c-2.2-3.4-4.4-6.7-6.8-10.2c-3.9-5-6.2-7.7-6.2-7.7c-4.5-5.2-3.9-13,1.3-17.5c5.2-4.5,13-3.9,17.5,1.3c0.1,0.1,2.7,3.2,7.2,9    l0.4,0.5c2.6,3.8,5.1,7.4,7.5,11.3c2.9,4.6,5.6,9.8,8.4,15.3l0.9,1.8c7.3,16.3,11.9,32.2,14.1,48.7c2.8,21.3,1.2,43.6-4.5,64.4    c-6.8,24.5-19.3,47.2-36.2,65.6l-0.2,0.2c-2.2,2.3-4.4,4.5-6.7,6.7l-4,3.9l-3.6,3c-2.5,2.1-5,4.1-7.6,6.1l-0.3,0.2    c-2.3,1.7-4.5,3.2-6.7,4.6l-1.5,1c-5.1,3.5-10.4,6.3-15.6,8.9l-2.8,1.4c-2.6,1.2-5.2,2.3-7.6,3.3l-6.9,2.7    c-1.3,0.5-2.6,0.9-3.9,1.3l-1.2,0.4c-3.2,1-6.6,1.9-9.9,2.8l-0.6,0.1c-3.3,0.7-6.5,1.3-9.8,1.9c-3.6,0.7-7,1-10.2,1.4l-0.9,0.1    c-0.9,0.1-1.7,0.1-2.6,0.2c-2.4,0.2-5.1,0.5-8,0.4C309,364.9,307.6,364.9,306.3,364.9z M259.7,191C259.7,191,259.7,191,259.7,191    L259.7,191z"
       style="fill: #00AEEF;"
       id="path6" /></svg>
  <svg
     y="389.4148712158203"
     viewBox="3.8400001525878906 14.779999732971191 378.8500061035156 61"
     x="98.07499694824219"
     height="61"
     width="378.8500061035156"
     style="overflow:visible;fill:#d7d7d7;fill-opacity:1"
     version="1.1"
     id="svg7">
    <g
       fill="#464646"
       fill-opacity="1"
       style="fill:#d7d7d7;fill-opacity:1"
       id="g7">
      <path
         d="M48.63 18.22L48.63 50.22Q48.63 53 47.58 55.45Q46.53 57.91 44.70 59.73Q42.88 61.56 40.42 62.61Q37.97 63.66 35.19 63.66L35.19 63.66Q32.69 63.66 30.39 62.78Q28.09 61.91 26.25 60.22L26.25 60.22Q24.41 61.91 22.09 62.78Q19.78 63.66 17.28 63.66L17.28 63.66Q14.50 63.66 12.05 62.61Q9.59 61.56 7.77 59.73Q5.94 57.91 4.89 55.45Q3.84 53 3.84 50.22L3.84 50.22L3.84 18.22L12.81 18.22L12.81 50.22Q12.81 51.16 13.16 51.98Q13.50 52.81 14.11 53.42Q14.72 54.03 15.53 54.38Q16.34 54.72 17.28 54.72L17.28 54.72Q18.22 54.72 19.03 54.38Q19.84 54.03 20.45 53.42Q21.06 52.81 21.41 51.98Q21.75 51.16 21.75 50.22L21.75 50.22L21.75 18.22L30.72 18.22L30.72 50.22Q30.72 51.16 31.06 51.98Q31.41 52.81 32.02 53.42Q32.63 54.03 33.44 54.38Q34.25 54.72 35.19 54.72L35.19 54.72Q36.13 54.72 36.94 54.38Q37.75 54.03 38.36 53.42Q38.97 52.81 39.33 51.98Q39.69 51.16 39.69 50.22L39.69 50.22L39.69 18.22L48.63 18.22ZM65.78 20.47L65.78 20.47Q65.78 21.66 65.33 22.69Q64.88 23.72 64.09 24.48Q63.31 25.25 62.27 25.70Q61.22 26.16 60.03 26.16L60.03 26.16Q58.84 26.16 57.80 25.70Q56.75 25.25 55.98 24.48Q55.22 23.72 54.77 22.69Q54.31 21.66 54.31 20.47L54.31 20.47Q54.31 19.31 54.77 18.27Q55.22 17.22 55.98 16.45Q56.75 15.69 57.80 15.23Q58.84 14.78 60.03 14.78L60.03 14.78Q61.22 14.78 62.27 15.23Q63.31 15.69 64.09 16.45Q64.88 17.22 65.33 18.27Q65.78 19.31 65.78 20.47ZM64.31 29.56L64.31 63.03L55.72 63.03L55.72 29.56L64.31 29.56ZM79.34 43.91L79.34 63.03L70.81 63.03L70.81 29.56L72.88 29.56L75.69 32.81Q77.75 30.94 80.36 29.92Q82.97 28.91 85.81 28.91L85.81 28.91Q88.88 28.91 91.59 30.08Q94.31 31.25 96.34 33.30Q98.38 35.34 99.55 38.08Q100.72 40.81 100.72 43.91L100.72 43.91L100.72 63.03L92.19 63.03L92.19 43.91Q92.19 42.59 91.69 41.42Q91.19 40.25 90.31 39.38Q89.44 38.50 88.28 38Q87.13 37.50 85.81 37.50L85.81 37.50Q84.47 37.50 83.28 38Q82.09 38.50 81.22 39.38Q80.34 40.25 79.84 41.42Q79.34 42.59 79.34 43.91L79.34 43.91ZM139.13 16.25L139.13 63.03L137.06 63.03L133.75 58.44Q132.53 59.53 131.17 60.48Q129.81 61.44 128.31 62.14Q126.81 62.84 125.23 63.25Q123.66 63.66 122.03 63.66L122.03 63.66Q118.50 63.66 115.39 62.33Q112.28 61 109.95 58.64Q107.63 56.28 106.28 53.05Q104.94 49.81 104.94 46L104.94 46Q104.94 42.22 106.28 38.97Q107.63 35.72 109.95 33.34Q112.28 30.97 115.39 29.63Q118.50 28.28 122.03 28.28L122.03 28.28Q123.16 28.28 124.36 28.47Q125.56 28.66 126.70 29.08Q127.84 29.50 128.84 30.19Q129.84 30.88 130.53 31.88L130.53 31.88L130.53 16.25L139.13 16.25ZM130.53 46L130.53 46Q130.53 44.25 129.86 42.61Q129.19 40.97 128.03 39.70Q126.88 38.44 125.33 37.67Q123.78 36.91 122.03 36.91L122.03 36.91Q120.28 36.91 118.73 37.53Q117.19 38.16 116.05 39.33Q114.91 40.50 114.25 42.19Q113.59 43.88 113.59 46L113.59 46Q113.59 47.84 114.25 49.50Q114.91 51.16 116.05 52.41Q117.19 53.66 118.73 54.38Q120.28 55.09 122.03 55.09L122.03 55.09Q123.78 55.09 125.33 54.33Q126.88 53.56 128.03 52.30Q129.19 51.03 129.86 49.39Q130.53 47.75 130.53 46ZM183.25 27.19L183.25 63.03L174.31 63.03L174.31 27.19L160.84 27.19L160.84 18.22L196.69 18.22L196.69 27.19L183.25 27.19ZM224.59 35.56L208.59 54.84Q209.09 55 209.59 55.05Q210.09 55.09 210.59 55.09L210.59 55.09Q211.84 55.09 213 54.75Q214.16 54.41 215.17 53.77Q216.19 53.13 216.98 52.20Q217.78 51.28 218.28 50.16L218.28 50.16L224.53 56.44Q223.34 58.13 221.80 59.47Q220.25 60.81 218.45 61.75Q216.66 62.69 214.67 63.17Q212.69 63.66 210.59 63.66L210.59 63.66Q207.06 63.66 203.95 62.34Q200.84 61.03 198.52 58.69Q196.19 56.34 194.84 53.11Q193.50 49.88 193.50 46L193.50 46Q193.50 42.03 194.84 38.75Q196.19 35.47 198.52 33.16Q200.84 30.84 203.95 29.56Q207.06 28.28 210.59 28.28L210.59 28.28Q212.69 28.28 214.69 28.78Q216.69 29.28 218.48 30.22Q220.28 31.16 221.84 32.52Q223.41 33.88 224.59 35.56L224.59 35.56ZM203.03 50.44L212.97 37.25Q212.38 37.03 211.80 36.97Q211.22 36.91 210.59 36.91L210.59 36.91Q208.84 36.91 207.30 37.55Q205.75 38.19 204.61 39.38Q203.47 40.56 202.81 42.23Q202.16 43.91 202.16 46L202.16 46Q202.16 46.47 202.20 47.06Q202.25 47.66 202.36 48.27Q202.47 48.88 202.63 49.44Q202.78 50 203.03 50.44L203.03 50.44ZM271.44 41.78L271.44 63.03L262.94 63.03L262.94 41.78Q262.94 40.91 262.61 40.13Q262.28 39.34 261.69 38.75Q261.09 38.16 260.31 37.83Q259.53 37.50 258.66 37.50L258.66 37.50Q257.78 37.50 257.02 37.83Q256.25 38.16 255.67 38.75Q255.09 39.34 254.77 40.13Q254.44 40.91 254.44 41.78L254.44 41.78L254.44 63.03L245.91 63.03L245.91 41.78Q245.91 40.91 245.58 40.13Q245.25 39.34 244.66 38.75Q244.06 38.16 243.28 37.83Q242.50 37.50 241.63 37.50L241.63 37.50Q240.75 37.50 239.98 37.83Q239.22 38.16 238.64 38.75Q238.06 39.34 237.73 40.13Q237.41 40.91 237.41 41.78L237.41 41.78L237.41 63.03L228.88 63.03L228.88 29.56L230.94 29.56L233.25 32.13Q235.03 30.63 237.17 29.80Q239.31 28.97 241.63 28.97L241.63 28.97Q243.97 28.97 246.20 29.84Q248.44 30.72 250.13 32.88L250.13 32.88Q250.91 31.81 251.91 31.06Q252.91 30.31 254.02 29.84Q255.13 29.38 256.31 29.17Q257.50 28.97 258.66 28.97L258.66 28.97Q261.31 28.97 263.64 29.97Q265.97 30.97 267.70 32.70Q269.44 34.44 270.44 36.78Q271.44 39.13 271.44 41.78L271.44 41.78ZM286.25 60.78L286.25 75.78L277.66 75.78L277.66 29.56L279.72 29.56L283.13 33.59Q284.28 32.50 285.66 31.53Q287.03 30.56 288.52 29.86Q290 29.16 291.59 28.75Q293.19 28.34 294.81 28.34L294.81 28.34Q298.34 28.34 301.45 29.61Q304.56 30.88 306.89 33.19Q309.22 35.50 310.56 38.77Q311.91 42.03 311.91 46L311.91 46Q311.91 50.13 310.56 53.42Q309.22 56.72 306.89 59.02Q304.56 61.31 301.45 62.53Q298.34 63.75 294.81 63.75L294.81 63.75Q293.69 63.75 292.58 63.50Q291.47 63.25 290.39 62.83Q289.31 62.41 288.27 61.88Q287.22 61.34 286.25 60.78L286.25 60.78ZM303.34 46L303.34 46Q303.34 43.88 302.67 42.19Q302 40.50 300.84 39.33Q299.69 38.16 298.13 37.53Q296.56 36.91 294.81 36.91L294.81 36.91Q293.06 36.91 291.52 37.53Q289.97 38.16 288.81 39.33Q287.66 40.50 286.98 42.19Q286.31 43.88 286.31 46L286.31 46Q286.31 48.03 286.98 49.72Q287.66 51.41 288.81 52.59Q289.97 53.78 291.52 54.44Q293.06 55.09 294.81 55.09L294.81 55.09Q296.56 55.09 298.13 54.44Q299.69 53.78 300.84 52.59Q302 51.41 302.67 49.72Q303.34 48.03 303.34 46ZM348.97 46L348.97 46Q348.97 49.75 347.63 52.98Q346.28 56.22 343.97 58.58Q341.66 60.94 338.55 62.30Q335.44 63.66 331.88 63.66L331.88 63.66Q328.34 63.66 325.23 62.30Q322.13 60.94 319.80 58.58Q317.47 56.22 316.13 52.98Q314.78 49.75 314.78 46L314.78 46Q314.78 42.19 316.13 38.94Q317.47 35.69 319.80 33.33Q322.13 30.97 325.23 29.63Q328.34 28.28 331.88 28.28L331.88 28.28Q335.44 28.28 338.55 29.55Q341.66 30.81 343.97 33.14Q346.28 35.47 347.63 38.73Q348.97 42 348.97 46ZM340.38 46L340.38 46Q340.38 43.94 339.70 42.27Q339.03 40.59 337.88 39.39Q336.72 38.19 335.17 37.55Q333.63 36.91 331.88 36.91L331.88 36.91Q330.13 36.91 328.58 37.55Q327.03 38.19 325.89 39.39Q324.75 40.59 324.09 42.27Q323.44 43.94 323.44 46L323.44 46Q323.44 47.94 324.09 49.59Q324.75 51.25 325.89 52.47Q327.03 53.69 328.58 54.39Q330.13 55.09 331.88 55.09L331.88 55.09Q333.63 55.09 335.17 54.44Q336.72 53.78 337.88 52.59Q339.03 51.41 339.70 49.72Q340.38 48.03 340.38 46ZM372.06 63.03L372.06 63.03L352.56 63.03L352.56 54.53L372.06 54.53Q372.94 54.53 373.56 53.91Q374.19 53.28 374.19 52.41L374.19 52.41Q374.19 51.50 373.56 51.22Q372.94 50.94 372.06 50.94L372.06 50.94L363.19 50.94Q360.97 50.94 359.03 50.09Q357.09 49.25 355.66 47.80Q354.22 46.34 353.39 44.41Q352.56 42.47 352.56 40.25L352.56 40.25Q352.56 38.03 353.39 36.09Q354.22 34.16 355.66 32.72Q357.09 31.28 359.03 30.45Q360.97 29.63 363.19 29.63L363.19 29.63L380.47 29.63L380.47 38.13L363.19 38.13Q362.31 38.13 361.69 38.75Q361.06 39.38 361.06 40.25L361.06 40.25Q361.06 41.16 361.69 41.80Q362.31 42.44 363.19 42.44L363.19 42.44L372.06 42.44Q374.25 42.44 376.19 43.17Q378.13 43.91 379.56 45.22Q381 46.53 381.84 48.38Q382.69 50.22 382.69 52.41L382.69 52.41Q382.69 54.63 381.84 56.55Q381 58.47 379.56 59.92Q378.13 61.38 376.19 62.20Q374.25 63.03 372.06 63.03Z"
         transform="translate(0, 0)"
         id="path7"
         style="fill:#d7d7d7;fill-opacity:1" />
    </g>
  </svg>
</svg>
